G75*
%MOIN*%
%OFA0B0*%
%FSLAX25Y25*%
%IPPOS*%
%LPD*%
%AMOC8*
5,1,8,0,0,1.08239X$1,22.5*
%
%ADD10C,0.07400*%
%ADD11C,0.04000*%
%ADD12C,0.01000*%
D10*
X0021500Y0011500D03*
X0031500Y0011500D03*
X0031500Y0021500D03*
X0021500Y0021500D03*
X0021500Y0031500D03*
X0031500Y0031500D03*
D11*
X0066500Y0029000D03*
X0066500Y0024000D03*
X0066500Y0019000D03*
X0066500Y0014000D03*
X0066500Y0009000D03*
X0066500Y0034000D03*
D12*
X0006000Y0037000D02*
X0006000Y0006000D01*
X0064500Y0006000D01*
X0064500Y0006333D01*
X0063702Y0007131D01*
X0063200Y0008344D01*
X0063200Y0009656D01*
X0063702Y0010869D01*
X0064192Y0011359D01*
X0063781Y0011769D01*
X0063398Y0012342D01*
X0063134Y0012979D01*
X0063000Y0013655D01*
X0063000Y0014000D01*
X0064500Y0014000D01*
X0064500Y0014000D01*
X0063000Y0014000D01*
X0063000Y0014345D01*
X0063134Y0015021D01*
X0063398Y0015658D01*
X0063781Y0016231D01*
X0064192Y0016641D01*
X0063702Y0017131D01*
X0063200Y0018344D01*
X0063200Y0019656D01*
X0063702Y0020869D01*
X0064333Y0021500D01*
X0063702Y0022131D01*
X0063200Y0023344D01*
X0063200Y0024656D01*
X0063702Y0025869D01*
X0064333Y0026500D01*
X0063702Y0027131D01*
X0063200Y0028344D01*
X0063200Y0029656D01*
X0063702Y0030869D01*
X0064333Y0031500D01*
X0063702Y0032131D01*
X0063200Y0033344D01*
X0063200Y0034656D01*
X0063702Y0035869D01*
X0064500Y0036667D01*
X0064500Y0037000D01*
X0006000Y0037000D01*
X0006000Y0036448D02*
X0019901Y0036448D01*
X0020282Y0036572D02*
X0019504Y0036319D01*
X0018775Y0035947D01*
X0018112Y0035466D01*
X0017534Y0034888D01*
X0017053Y0034225D01*
X0016681Y0033496D01*
X0016428Y0032718D01*
X0016314Y0032000D01*
X0021000Y0032000D01*
X0021000Y0036686D01*
X0020282Y0036572D01*
X0021000Y0036448D02*
X0022000Y0036448D01*
X0022000Y0036686D02*
X0022000Y0032000D01*
X0021000Y0032000D01*
X0021000Y0031000D01*
X0016314Y0031000D01*
X0016428Y0030282D01*
X0016681Y0029504D01*
X0017053Y0028775D01*
X0017534Y0028112D01*
X0018112Y0027534D01*
X0018775Y0027053D01*
X0019504Y0026681D01*
X0020282Y0026428D01*
X0020318Y0026422D01*
X0018668Y0025739D01*
X0017261Y0024332D01*
X0016500Y0022495D01*
X0016500Y0020505D01*
X0017261Y0018668D01*
X0018668Y0017261D01*
X0020505Y0016500D01*
X0018668Y0015739D01*
X0017261Y0014332D01*
X0016500Y0012495D01*
X0016500Y0010505D01*
X0017261Y0008668D01*
X0018668Y0007261D01*
X0020505Y0006500D01*
X0022495Y0006500D01*
X0024332Y0007261D01*
X0025739Y0008668D01*
X0026500Y0010505D01*
X0027261Y0008668D01*
X0028668Y0007261D01*
X0030505Y0006500D01*
X0032495Y0006500D01*
X0034332Y0007261D01*
X0035739Y0008668D01*
X0036500Y0010505D01*
X0036500Y0012495D01*
X0035739Y0014332D01*
X0034332Y0015739D01*
X0032495Y0016500D01*
X0030505Y0016500D01*
X0028668Y0015739D01*
X0027261Y0014332D01*
X0026500Y0012495D01*
X0026500Y0010505D01*
X0026500Y0012495D01*
X0025739Y0014332D01*
X0024332Y0015739D01*
X0022495Y0016500D01*
X0020505Y0016500D01*
X0022495Y0016500D01*
X0024332Y0017261D01*
X0025739Y0018668D01*
X0026500Y0020505D01*
X0027261Y0018668D01*
X0028668Y0017261D01*
X0030505Y0016500D01*
X0032495Y0016500D01*
X0034332Y0017261D01*
X0035739Y0018668D01*
X0036500Y0020505D01*
X0036500Y0022495D01*
X0035739Y0024332D01*
X0034332Y0025739D01*
X0032495Y0026500D01*
X0030505Y0026500D01*
X0028668Y0025739D01*
X0027261Y0024332D01*
X0026500Y0022495D01*
X0026500Y0020505D01*
X0026500Y0022495D01*
X0025739Y0024332D01*
X0024332Y0025739D01*
X0022682Y0026422D01*
X0022718Y0026428D01*
X0023496Y0026681D01*
X0024225Y0027053D01*
X0024888Y0027534D01*
X0025466Y0028112D01*
X0025947Y0028775D01*
X0026319Y0029504D01*
X0026572Y0030282D01*
X0026578Y0030318D01*
X0027261Y0028668D01*
X0028668Y0027261D01*
X0030505Y0026500D01*
X0032495Y0026500D01*
X0034332Y0027261D01*
X0035739Y0028668D01*
X0036500Y0030505D01*
X0036500Y0032495D01*
X0035739Y0034332D01*
X0034332Y0035739D01*
X0032495Y0036500D01*
X0030505Y0036500D01*
X0028668Y0035739D01*
X0027261Y0034332D01*
X0026578Y0032682D01*
X0026572Y0032718D01*
X0026319Y0033496D01*
X0025947Y0034225D01*
X0025466Y0034888D01*
X0024888Y0035466D01*
X0024225Y0035947D01*
X0023496Y0036319D01*
X0022718Y0036572D01*
X0022000Y0036686D01*
X0023099Y0036448D02*
X0030380Y0036448D01*
X0028378Y0035449D02*
X0024905Y0035449D01*
X0025784Y0034451D02*
X0027380Y0034451D01*
X0026897Y0033452D02*
X0026333Y0033452D01*
X0022000Y0033452D02*
X0021000Y0033452D01*
X0021000Y0032454D02*
X0022000Y0032454D01*
X0021000Y0031455D02*
X0006000Y0031455D01*
X0006000Y0032454D02*
X0016386Y0032454D01*
X0016667Y0033452D02*
X0006000Y0033452D01*
X0006000Y0034451D02*
X0017216Y0034451D01*
X0018095Y0035449D02*
X0006000Y0035449D01*
X0006000Y0030457D02*
X0016400Y0030457D01*
X0016704Y0029458D02*
X0006000Y0029458D01*
X0006000Y0028460D02*
X0017281Y0028460D01*
X0018212Y0027461D02*
X0006000Y0027461D01*
X0006000Y0026463D02*
X0020175Y0026463D01*
X0018393Y0025464D02*
X0006000Y0025464D01*
X0006000Y0024466D02*
X0017395Y0024466D01*
X0016903Y0023467D02*
X0006000Y0023467D01*
X0006000Y0022469D02*
X0016500Y0022469D01*
X0016500Y0021470D02*
X0006000Y0021470D01*
X0006000Y0020472D02*
X0016514Y0020472D01*
X0016928Y0019473D02*
X0006000Y0019473D01*
X0006000Y0018475D02*
X0017454Y0018475D01*
X0018453Y0017476D02*
X0006000Y0017476D01*
X0006000Y0016478D02*
X0020452Y0016478D01*
X0022548Y0016478D02*
X0030452Y0016478D01*
X0032548Y0016478D02*
X0064028Y0016478D01*
X0063559Y0017476D02*
X0034547Y0017476D01*
X0035546Y0018475D02*
X0063200Y0018475D01*
X0063200Y0019473D02*
X0036072Y0019473D01*
X0036486Y0020472D02*
X0063538Y0020472D01*
X0064303Y0021470D02*
X0036500Y0021470D01*
X0036500Y0022469D02*
X0063562Y0022469D01*
X0063200Y0023467D02*
X0036097Y0023467D01*
X0035605Y0024466D02*
X0063200Y0024466D01*
X0063535Y0025464D02*
X0034607Y0025464D01*
X0032584Y0026463D02*
X0064296Y0026463D01*
X0063565Y0027461D02*
X0034532Y0027461D01*
X0035531Y0028460D02*
X0063200Y0028460D01*
X0063200Y0029458D02*
X0036066Y0029458D01*
X0036480Y0030457D02*
X0063532Y0030457D01*
X0064288Y0031455D02*
X0036500Y0031455D01*
X0036500Y0032454D02*
X0063569Y0032454D01*
X0063200Y0033452D02*
X0036103Y0033452D01*
X0035620Y0034451D02*
X0063200Y0034451D01*
X0063528Y0035449D02*
X0034622Y0035449D01*
X0032620Y0036448D02*
X0064281Y0036448D01*
X0030416Y0026463D02*
X0022825Y0026463D01*
X0024607Y0025464D02*
X0028393Y0025464D01*
X0027395Y0024466D02*
X0025605Y0024466D01*
X0026097Y0023467D02*
X0026903Y0023467D01*
X0026500Y0022469D02*
X0026500Y0022469D01*
X0026500Y0021470D02*
X0026500Y0021470D01*
X0026486Y0020472D02*
X0026514Y0020472D01*
X0026928Y0019473D02*
X0026072Y0019473D01*
X0025546Y0018475D02*
X0027454Y0018475D01*
X0028453Y0017476D02*
X0024547Y0017476D01*
X0024592Y0015479D02*
X0028408Y0015479D01*
X0027410Y0014481D02*
X0025590Y0014481D01*
X0026091Y0013482D02*
X0026909Y0013482D01*
X0026500Y0012484D02*
X0026500Y0012484D01*
X0026500Y0011485D02*
X0026500Y0011485D01*
X0026492Y0010487D02*
X0026508Y0010487D01*
X0026921Y0009488D02*
X0026079Y0009488D01*
X0025561Y0008490D02*
X0027439Y0008490D01*
X0028438Y0007491D02*
X0024562Y0007491D01*
X0018438Y0007491D02*
X0006000Y0007491D01*
X0006000Y0006493D02*
X0064341Y0006493D01*
X0063553Y0007491D02*
X0034562Y0007491D01*
X0035561Y0008490D02*
X0063200Y0008490D01*
X0063200Y0009488D02*
X0036079Y0009488D01*
X0036492Y0010487D02*
X0063544Y0010487D01*
X0064065Y0011485D02*
X0036500Y0011485D01*
X0036500Y0012484D02*
X0063340Y0012484D01*
X0063034Y0013482D02*
X0036091Y0013482D01*
X0035590Y0014481D02*
X0063027Y0014481D01*
X0063324Y0015479D02*
X0034592Y0015479D01*
X0018408Y0015479D02*
X0006000Y0015479D01*
X0006000Y0014481D02*
X0017410Y0014481D01*
X0016909Y0013482D02*
X0006000Y0013482D01*
X0006000Y0012484D02*
X0016500Y0012484D01*
X0016500Y0011485D02*
X0006000Y0011485D01*
X0006000Y0010487D02*
X0016508Y0010487D01*
X0016921Y0009488D02*
X0006000Y0009488D01*
X0006000Y0008490D02*
X0017439Y0008490D01*
X0024788Y0027461D02*
X0028468Y0027461D01*
X0027469Y0028460D02*
X0025719Y0028460D01*
X0026296Y0029458D02*
X0026934Y0029458D01*
X0022000Y0034451D02*
X0021000Y0034451D01*
X0021000Y0035449D02*
X0022000Y0035449D01*
M02*
