G75*
%MOIN*%
%OFA0B0*%
%FSLAX25Y25*%
%IPPOS*%
%LPD*%
%AMOC8*
5,1,8,0,0,1.08239X$1,22.5*
%
%ADD10C,0.00400*%
%ADD11C,0.00800*%
D10*
X0005714Y0010100D02*
X0006648Y0011034D01*
X0006648Y0012902D01*
X0007727Y0012435D02*
X0007727Y0010567D01*
X0008194Y0010100D01*
X0009128Y0010100D01*
X0009595Y0010567D01*
X0010673Y0010567D02*
X0011140Y0010100D01*
X0012074Y0010100D01*
X0012542Y0010567D01*
X0010673Y0010567D02*
X0010673Y0012435D01*
X0011140Y0012902D01*
X0012074Y0012902D01*
X0012542Y0012435D01*
X0009595Y0012435D02*
X0009128Y0012902D01*
X0008194Y0012902D01*
X0007727Y0012435D01*
X0004780Y0012902D02*
X0004780Y0011034D01*
X0005714Y0010100D01*
X0005714Y0020100D02*
X0006648Y0021034D01*
X0006648Y0022902D01*
X0007727Y0022435D02*
X0007727Y0020567D01*
X0008194Y0020100D01*
X0009128Y0020100D01*
X0009595Y0020567D01*
X0010673Y0020567D02*
X0011140Y0020100D01*
X0012074Y0020100D01*
X0012542Y0020567D01*
X0010673Y0020567D02*
X0010673Y0022435D01*
X0011140Y0022902D01*
X0012074Y0022902D01*
X0012542Y0022435D01*
X0009595Y0022435D02*
X0009128Y0022902D01*
X0008194Y0022902D01*
X0007727Y0022435D01*
X0004780Y0022902D02*
X0004780Y0021034D01*
X0005714Y0020100D01*
X0005714Y0030100D02*
X0006648Y0031034D01*
X0006648Y0032902D01*
X0007727Y0032435D02*
X0007727Y0030567D01*
X0008194Y0030100D01*
X0009128Y0030100D01*
X0009595Y0030567D01*
X0010673Y0030567D02*
X0011140Y0030100D01*
X0012074Y0030100D01*
X0012542Y0030567D01*
X0010673Y0030567D02*
X0010673Y0032435D01*
X0011140Y0032902D01*
X0012074Y0032902D01*
X0012542Y0032435D01*
X0009595Y0032435D02*
X0009128Y0032902D01*
X0008194Y0032902D01*
X0007727Y0032435D01*
X0004780Y0032902D02*
X0004780Y0031034D01*
X0005714Y0030100D01*
X0039780Y0031034D02*
X0040714Y0030100D01*
X0041648Y0031034D01*
X0041648Y0032902D01*
X0042727Y0032435D02*
X0042727Y0030567D01*
X0043194Y0030100D01*
X0044128Y0030100D01*
X0044595Y0030567D01*
X0045673Y0030567D02*
X0046140Y0030100D01*
X0047074Y0030100D01*
X0047542Y0030567D01*
X0045673Y0030567D02*
X0045673Y0032435D01*
X0046140Y0032902D01*
X0047074Y0032902D01*
X0047542Y0032435D01*
X0044595Y0032435D02*
X0044128Y0032902D01*
X0043194Y0032902D01*
X0042727Y0032435D01*
X0039780Y0032902D02*
X0039780Y0031034D01*
X0039780Y0022902D02*
X0039780Y0021034D01*
X0040714Y0020100D01*
X0041648Y0021034D01*
X0041648Y0022902D01*
X0042727Y0022435D02*
X0042727Y0020567D01*
X0043194Y0020100D01*
X0044128Y0020100D01*
X0044595Y0020567D01*
X0045673Y0020567D02*
X0046140Y0020100D01*
X0047074Y0020100D01*
X0047542Y0020567D01*
X0045673Y0020567D02*
X0045673Y0022435D01*
X0046140Y0022902D01*
X0047074Y0022902D01*
X0047542Y0022435D01*
X0044595Y0022435D02*
X0044128Y0022902D01*
X0043194Y0022902D01*
X0042727Y0022435D01*
X0043194Y0012902D02*
X0042727Y0012435D01*
X0042727Y0010567D01*
X0043194Y0010100D01*
X0044128Y0010100D01*
X0044595Y0010567D01*
X0045673Y0010567D02*
X0046140Y0010100D01*
X0047074Y0010100D01*
X0047542Y0010567D01*
X0045673Y0010567D02*
X0045673Y0012435D01*
X0046140Y0012902D01*
X0047074Y0012902D01*
X0047542Y0012435D01*
X0044595Y0012435D02*
X0044128Y0012902D01*
X0043194Y0012902D01*
X0041648Y0012902D02*
X0041648Y0011034D01*
X0040714Y0010100D01*
X0039780Y0011034D01*
X0039780Y0012902D01*
X0066161Y0037133D02*
X0066161Y0040869D01*
X0065694Y0040402D02*
X0066628Y0040402D01*
X0067095Y0039935D01*
X0065694Y0040402D02*
X0065227Y0039935D01*
X0065227Y0039468D01*
X0065694Y0039001D01*
X0066628Y0039001D01*
X0067095Y0038534D01*
X0067095Y0038067D01*
X0066628Y0037600D01*
X0065694Y0037600D01*
X0065227Y0038067D01*
X0064148Y0038067D02*
X0063681Y0037600D01*
X0062747Y0037600D01*
X0062280Y0038067D01*
X0062280Y0040402D01*
X0064148Y0040402D02*
X0064148Y0038067D01*
X0068173Y0037600D02*
X0070042Y0037600D01*
X0069107Y0037600D02*
X0069107Y0040402D01*
X0068173Y0039468D01*
D11*
X0016500Y0014000D02*
X0016500Y0009000D01*
X0019000Y0006500D01*
X0034000Y0006500D01*
X0036500Y0009000D01*
X0036500Y0014000D01*
X0034000Y0016500D01*
X0019000Y0016500D01*
X0016500Y0019000D01*
X0016500Y0024000D01*
X0019000Y0026500D01*
X0034000Y0026500D01*
X0036500Y0029000D01*
X0036500Y0034000D01*
X0034000Y0036500D01*
X0019000Y0036500D01*
X0016500Y0034000D01*
X0016500Y0029000D01*
X0019000Y0026500D01*
X0034000Y0026500D02*
X0036500Y0024000D01*
X0036500Y0019000D01*
X0034000Y0016500D01*
X0037819Y0014000D02*
X0037819Y0009000D01*
X0019000Y0016500D02*
X0016500Y0014000D01*
M02*
